<!DOCTYPE svg PUBLIC "-//W3C//DTD SVG 1.1//EN" "http://www.w3.org/Graphics/SVG/1.1/DTD/svg11.dtd">
<!-- Uploaded to: SVG Repo, www.svgrepo.com, Transformed by: SVG Repo Mixer Tools -->
<svg fill="#000000" height="800px" width="800px" version="1.1" id="Layer_1" xmlns="http://www.w3.org/2000/svg" xmlns:xlink="http://www.w3.org/1999/xlink" viewBox="0 0 512 512" xml:space="preserve">
<g id="SVGRepo_bgCarrier" stroke-width="0"/>
<g id="SVGRepo_tracerCarrier" stroke-linecap="round" stroke-linejoin="round" stroke="#000000" stroke-width="2.048"> <g> <g> <path d="M467.239,190.447c-6.052-29.83-26.124-53.404-58.047-68.173c-36.368-16.826-87.362-22.163-151.562-15.863 c-99.424,9.757-163.821,40.769-191.4,92.172c-14.505,27.036-18.34,59.932-11.088,95.133c5.051,24.521,13.734,42.058,15.226,44.96 c1.343,3.322,10.13,23.919,29.579,44.614c19.279,20.514,53.079,44.97,104.617,44.97c53.364,0,69.706-17.935,88.628-38.699 c15.916-17.466,33.956-37.263,81.246-52.022c28.063-8.759,54.546-29.913,72.66-58.039 C465.563,250.829,472.904,218.37,467.239,190.447z M369.916,323.048c-51.217,15.985-71.58,38.332-87.943,56.289 c-17.85,19.589-30.748,33.743-77.407,33.743c-36.819,0-68.164-13.381-93.166-39.772c-18.922-19.973-26.961-40.326-27.04-40.53 c-0.106-0.276-0.233-0.554-0.371-0.814c-0.358-0.678-35.447-68.448-4.328-126.301c25.069-46.609,85.446-74.919,179.453-84.143 c111.324-10.924,181.756,15.298,193.249,71.945C462.546,243.669,422.479,306.643,369.916,323.048z"/> </g> </g> <g> <g> <path d="M439.461,142.046c-2.764-3.147-7.559-3.46-10.709-0.697c-0.268,0.235-27.161,23.586-57.622,30.753 c-35.012,8.24-61.035,41.836-62.126,43.262c-2.544,3.327-1.91,8.084,1.415,10.632c1.377,1.055,2.999,1.565,4.61,1.565 c2.279,0,4.535-1.022,6.03-2.97c0.235-0.307,23.885-30.733,53.548-37.712c34.228-8.054,62.959-33.066,64.165-34.127 C441.918,149.985,442.224,145.194,439.461,142.046z"/> </g> </g> <g> <g> <path d="M367.755,180.44c-1.361-3.072-4.522-4.795-7.679-4.483c-4.13-0.218-27.164-3.604-47.712-6.855 c-4.132-0.655-8.027,2.17-8.683,6.31c-0.656,4.14,2.17,8.028,6.311,8.683c34.926,5.528,46.138,6.974,50.561,6.974 c1.945,0,2.578-0.28,3.337-0.614C367.722,188.756,369.453,184.273,367.755,180.44z"/> </g> </g> <g> <g> <path d="M262.322,313.54c-0.493-4.162-4.268-7.138-8.432-6.642c-21.929,2.605-38.092,8.994-48.04,18.987 c-7.386,7.419-8.876,14.392-9.173,16.671c-0.391,1.909-4.117,17.676-20.893,20.849c-26.442,5.002-42.942,36.039-43.633,37.357 c-1.942,3.715-0.506,8.302,3.209,10.244c1.123,0.587,2.326,0.865,3.511,0.865c2.734,0,5.377-1.483,6.733-4.075 c3.748-7.171,16.987-26.446,33.002-29.476c28.002-5.297,32.869-32.204,33.062-33.347c0.056-0.329,0.071-0.285,0.078-0.52 c0.331-1.514,4.824-17.835,43.934-22.481C259.844,321.479,262.817,317.703,262.322,313.54z"/> </g> </g> <g> <g> <path d="M233.637,378.051c-1.18-4.023-5.397-6.328-9.419-5.147c-29.607,8.682-48.104,40.95-48.877,42.319 c-2.06,3.65-0.771,8.28,2.879,10.341c1.179,0.665,2.46,0.982,3.724,0.982c2.649,0,5.222-1.39,6.617-3.861 c0.159-0.281,16.173-28.248,39.929-35.215C232.513,386.291,234.817,382.073,233.637,378.051z"/> </g> </g> <g> <g> <path d="M150.642,249.017c-0.299-4.182-3.935-7.329-8.111-7.03c-19.143,1.366-21.371-1.001-32.088-12.38 c-2.106-2.237-4.493-4.771-7.309-7.586c-19.509-19.51-34.375-17.858-36.007-17.605c-4.142,0.642-6.98,4.521-6.338,8.663 c0.643,4.142,4.521,6.978,8.663,6.338c0.082-0.015,9.183-0.43,22.949,13.337c2.654,2.654,4.959,5.101,6.992,7.259 c10.923,11.597,17.303,17.438,35.916,17.438c2.527,0,5.283-0.107,8.302-0.323C147.794,256.83,150.941,253.199,150.642,249.017z"/> </g> </g> <g> <g> <path d="M213.459,169.167c-5.201-2.905-13.86-4.398-25.583,4.985c-5.221,4.18-9.747,8.388-13.739,12.1 c-14.668,13.638-17.351,14.676-23.914,9.252c-0.817-0.675-0.949-1.014-0.952-1.004c-0.159-1.876,4.489-7.373,6.987-10.328 c5.469-6.469,11.667-13.801,10.799-22.429c-0.474-4.703-2.939-8.844-7.327-12.308c-22.596-17.839-51.346,2.914-52.558,3.806 c-3.377,2.484-4.102,7.235-1.617,10.612c2.484,3.376,7.235,4.101,10.611,1.616c0.204-0.15,20.539-14.868,34.156-4.119 c1.153,0.909,1.598,1.599,1.629,1.913c0.224,2.223-4.478,7.784-7.287,11.108c-5.529,6.539-11.245,13.301-10.515,21.482 c0.389,4.343,2.542,8.162,6.402,11.352c17.651,14.588,31.006,2.173,43.92-9.835c3.986-3.706,8.107-7.537,12.89-11.366 c3.829-3.066,7.162-4.443,8.693-3.583c3.722,2.08,7.752,14.816,5.056,36.622c-0.514,4.16,2.441,7.95,6.601,8.464 c0.317,0.039,0.63,0.059,0.941,0.059c3.776-0.001,7.048-2.816,7.524-6.66C229.41,194.762,224.654,175.421,213.459,169.167z"/> </g> </g> <g> <g> <path d="M242.632,175.929c-22.304,0.922-29.949,23.132-30.264,24.078c-1.324,3.977,0.828,8.275,4.805,9.599 c0.796,0.265,1.604,0.391,2.398,0.391c3.179,0,6.142-2.013,7.199-5.196c0.044-0.133,4.533-13.211,16.488-13.705 c4.189-0.173,7.443-3.708,7.27-7.897C250.355,179.01,246.824,175.74,242.632,175.929z"/> </g> </g> <g> <g> <path d="M462.055,173.63c-1.091-2.567-3.521-4.344-6.298-4.603c-4.56-0.419-6.864,3.019-7.619,4.15 c-8.9,13.359-25.979,22.531-48.092,25.824c-45.571,6.786-64.071,32.616-64.836,33.712c-0.05,0.07-0.097,0.141-0.144,0.213 c-6.965,10.731-29.707,37.683-51.027,33.61c-4.118-0.785-8.093,1.913-8.879,6.03c-0.787,4.117,1.913,8.093,6.029,8.88 c2.496,0.477,4.956,0.698,7.386,0.698c31.542-0.005,56.932-37.472,59.114-40.785c1.226-1.666,16.688-21.698,54.593-27.344 c26.371-3.927,47.12-15.413,58.439-32.347C462.624,179.543,463.245,176.429,462.055,173.63z"/> </g> </g> <g> <g> <path d="M395.086,202.192c-3.475-2.343-8.194-1.422-10.535,2.053c-2.343,3.476-1.424,8.194,2.053,10.536 c0.428,0.288,10.427,7.223,5.57,21.144c-1.382,3.958,0.707,8.285,4.665,9.667c0.829,0.288,1.672,0.425,2.501,0.425 c3.137,0,6.074-1.962,7.166-5.091C413.443,221.047,402.069,206.897,395.086,202.192z"/> </g> </g> <g> <g> <path d="M468.956,218.32c-0.914-4.091-4.966-6.666-9.062-5.753c-3.006,0.672-73.924,16.751-99.788,43.875 c-2.892,3.034-2.779,7.839,0.255,10.731c1.469,1.401,3.355,2.097,5.237,2.097c2.003,0,4.003-0.788,5.493-2.352 c22.69-23.795,91.42-39.38,92.112-39.535C467.294,226.468,469.868,222.41,468.956,218.32z"/> </g> </g> <g> <g> <path d="M162.236,326.13c-2.693-3.212-7.48-3.634-10.693-0.94c-12.451,10.438-21.289,10.928-21.376,10.931l0.156-0.002v15.18 c1.403,0,14.188-0.406,30.972-14.476C164.508,334.13,164.929,329.342,162.236,326.13z"/> </g> </g> <g> <g> <path d="M199.588,287.437c-3.905-1.523-8.307,0.41-9.829,4.315c-4.717,12.099-17.675,19.209-17.869,19.314 c-3.689,1.967-5.092,6.55-3.135,10.248c1.362,2.573,3.993,4.04,6.715,4.04c1.197,0,2.414-0.284,3.545-0.883 c0.735-0.389,18.076-9.728,24.888-27.205C205.425,293.36,203.493,288.959,199.588,287.437z"/> </g> </g> <g> <g> <path d="M89.098,480.628c-2.807-19.651-40.619-30.591-41-30.699c-28.955-8.212-41.375,10.096-46.695,26.897 c-3.4,10.738-0.553,20.612,7.816,27.087c6.896,5.337,17.27,7.951,28.509,7.951c13.31,0,27.834-3.666,39.233-10.814 C88.381,493.888,89.864,485.991,89.098,480.628z M68.896,488.188c-16.888,10.592-41.374,10.694-50.387,3.719 c-2.228-1.724-4.542-4.477-2.635-10.5c4.545-14.351,11.429-18.377,18.954-18.377c2.977,0,6.057,0.632,9.129,1.501 c12.637,3.583,29.349,12.89,30.113,18.241C74.212,483.765,72.666,485.824,68.896,488.188z"/> </g> </g> <g> <g> <path d="M52.647,453.519c-2.049-3.656-6.674-4.961-10.332-2.911c-0.381,0.214-9.413,5.339-16.132,14.694 c-9.31,12.961-9.961,28.138-1.835,42.735c1.388,2.495,3.974,3.9,6.639,3.9c1.25,0,2.517-0.309,3.684-0.961 c3.662-2.039,4.979-6.661,2.94-10.323c-12.259-22.02,9.595-35.356,12.148-36.816C53.399,461.782,54.692,457.168,52.647,453.519z"/> </g> </g> <g> <g> <path d="M507.292,14.214c-3.4-4.959-10.153-10.999-23.017-11.612c-3.548-0.168-7.084-0.727-10.506-1.267 c-7.999-1.263-16.27-2.567-24.206,1.297c-8.418,4.099-14.457,13.133-19.004,28.429c-7.861,26.441-8.408,42.109-1.83,52.388 c4.2,6.564,11.259,10.603,20.981,12.005c1.051,0.153,2.102,0.225,3.151,0.225c13.349,0,26.455-11.742,35.372-22.031 c10.13-11.687,19.281-26.584,22.767-37.07C512.83,31.081,512.45,21.737,507.292,14.214z M496.595,31.791 c-5.91,17.772-30.498,48.72-43.626,48.719c-0.373,0-0.738-0.025-1.092-0.077c-6.971-1.007-9.253-3.429-10.363-5.163 c-3.796-5.932-2.621-18.977,3.595-39.88c3.161-10.631,6.895-17.06,11.099-19.107c1.559-0.759,3.385-1.046,5.469-1.046 c2.786,0,6.034,0.512,9.722,1.096c3.646,0.575,7.777,1.228,12.152,1.436c5.328,0.253,9.102,1.947,11.219,5.033 C497.08,26.169,497.012,30.537,496.595,31.791z"/> </g> </g> <g> <g> <path d="M501.723,41.43c-21.461-29.456-61.059-21.274-62.736-20.91c-4.097,0.886-6.698,4.927-5.811,9.024 c0.888,4.098,4.927,6.697,9.025,5.812c0.311-0.068,31.546-6.545,47.254,15.013c1.485,2.039,3.797,3.121,6.14,3.121 c1.55,0,3.115-0.473,4.463-1.455C503.447,49.566,504.192,44.819,501.723,41.43z"/> </g> </g> <g> <g> <path d="M389.197,50.444c-12.389-2.032-24.127,6.387-26.162,18.777c-2.035,12.39,6.388,24.125,18.776,26.161 c1.245,0.204,2.483,0.304,3.706,0.304c10.944,0,20.625-7.936,22.456-19.079v-0.001C410.008,64.216,401.585,52.48,389.197,50.444z M392.996,74.144c-0.68,4.13-4.588,6.936-8.721,6.258c-4.13-0.678-6.937-4.59-6.259-8.719c0.61-3.716,3.838-6.36,7.486-6.36 c0.407,0,0.82,0.033,1.236,0.101C390.866,66.102,393.674,70.014,392.996,74.144z"/> </g> </g> <g> <g> <path d="M160.111,448.197c-12.388-2.037-24.124,6.388-26.161,18.777c-0.986,6.002,0.424,12.029,3.97,16.969 c3.547,4.942,8.805,8.205,14.807,9.192c1.25,0.205,2.5,0.307,3.741,0.307c4.722,0,9.315-1.468,13.228-4.277 c4.942-3.547,8.205-8.805,9.192-14.807C180.923,461.969,172.5,450.234,160.111,448.197z M163.909,471.899 c-0.678,4.129-4.582,6.94-8.72,6.258c-4.129-0.679-6.937-4.59-6.258-8.72c0.61-3.715,3.836-6.36,7.485-6.36 c0.407,0,0.82,0.032,1.235,0.102C161.78,463.858,164.588,467.769,163.909,471.899z"/> </g> </g> </g>
<g id="SVGRepo_iconCarrier"> <g> <g> <path d="M467.239,190.447c-6.052-29.83-26.124-53.404-58.047-68.173c-36.368-16.826-87.362-22.163-151.562-15.863 c-99.424,9.757-163.821,40.769-191.4,92.172c-14.505,27.036-18.34,59.932-11.088,95.133c5.051,24.521,13.734,42.058,15.226,44.96 c1.343,3.322,10.13,23.919,29.579,44.614c19.279,20.514,53.079,44.97,104.617,44.97c53.364,0,69.706-17.935,88.628-38.699 c15.916-17.466,33.956-37.263,81.246-52.022c28.063-8.759,54.546-29.913,72.66-58.039 C465.563,250.829,472.904,218.37,467.239,190.447z M369.916,323.048c-51.217,15.985-71.58,38.332-87.943,56.289 c-17.85,19.589-30.748,33.743-77.407,33.743c-36.819,0-68.164-13.381-93.166-39.772c-18.922-19.973-26.961-40.326-27.04-40.53 c-0.106-0.276-0.233-0.554-0.371-0.814c-0.358-0.678-35.447-68.448-4.328-126.301c25.069-46.609,85.446-74.919,179.453-84.143 c111.324-10.924,181.756,15.298,193.249,71.945C462.546,243.669,422.479,306.643,369.916,323.048z"/> </g> </g> <g> <g> <path d="M439.461,142.046c-2.764-3.147-7.559-3.46-10.709-0.697c-0.268,0.235-27.161,23.586-57.622,30.753 c-35.012,8.24-61.035,41.836-62.126,43.262c-2.544,3.327-1.91,8.084,1.415,10.632c1.377,1.055,2.999,1.565,4.61,1.565 c2.279,0,4.535-1.022,6.03-2.97c0.235-0.307,23.885-30.733,53.548-37.712c34.228-8.054,62.959-33.066,64.165-34.127 C441.918,149.985,442.224,145.194,439.461,142.046z"/> </g> </g> <g> <g> <path d="M367.755,180.44c-1.361-3.072-4.522-4.795-7.679-4.483c-4.13-0.218-27.164-3.604-47.712-6.855 c-4.132-0.655-8.027,2.17-8.683,6.31c-0.656,4.14,2.17,8.028,6.311,8.683c34.926,5.528,46.138,6.974,50.561,6.974 c1.945,0,2.578-0.28,3.337-0.614C367.722,188.756,369.453,184.273,367.755,180.44z"/> </g> </g> <g> <g> <path d="M262.322,313.54c-0.493-4.162-4.268-7.138-8.432-6.642c-21.929,2.605-38.092,8.994-48.04,18.987 c-7.386,7.419-8.876,14.392-9.173,16.671c-0.391,1.909-4.117,17.676-20.893,20.849c-26.442,5.002-42.942,36.039-43.633,37.357 c-1.942,3.715-0.506,8.302,3.209,10.244c1.123,0.587,2.326,0.865,3.511,0.865c2.734,0,5.377-1.483,6.733-4.075 c3.748-7.171,16.987-26.446,33.002-29.476c28.002-5.297,32.869-32.204,33.062-33.347c0.056-0.329,0.071-0.285,0.078-0.52 c0.331-1.514,4.824-17.835,43.934-22.481C259.844,321.479,262.817,317.703,262.322,313.54z"/> </g> </g> <g> <g> <path d="M233.637,378.051c-1.18-4.023-5.397-6.328-9.419-5.147c-29.607,8.682-48.104,40.95-48.877,42.319 c-2.06,3.65-0.771,8.28,2.879,10.341c1.179,0.665,2.46,0.982,3.724,0.982c2.649,0,5.222-1.39,6.617-3.861 c0.159-0.281,16.173-28.248,39.929-35.215C232.513,386.291,234.817,382.073,233.637,378.051z"/> </g> </g> <g> <g> <path d="M150.642,249.017c-0.299-4.182-3.935-7.329-8.111-7.03c-19.143,1.366-21.371-1.001-32.088-12.38 c-2.106-2.237-4.493-4.771-7.309-7.586c-19.509-19.51-34.375-17.858-36.007-17.605c-4.142,0.642-6.98,4.521-6.338,8.663 c0.643,4.142,4.521,6.978,8.663,6.338c0.082-0.015,9.183-0.43,22.949,13.337c2.654,2.654,4.959,5.101,6.992,7.259 c10.923,11.597,17.303,17.438,35.916,17.438c2.527,0,5.283-0.107,8.302-0.323C147.794,256.83,150.941,253.199,150.642,249.017z"/> </g> </g> <g> <g> <path d="M213.459,169.167c-5.201-2.905-13.86-4.398-25.583,4.985c-5.221,4.18-9.747,8.388-13.739,12.1 c-14.668,13.638-17.351,14.676-23.914,9.252c-0.817-0.675-0.949-1.014-0.952-1.004c-0.159-1.876,4.489-7.373,6.987-10.328 c5.469-6.469,11.667-13.801,10.799-22.429c-0.474-4.703-2.939-8.844-7.327-12.308c-22.596-17.839-51.346,2.914-52.558,3.806 c-3.377,2.484-4.102,7.235-1.617,10.612c2.484,3.376,7.235,4.101,10.611,1.616c0.204-0.15,20.539-14.868,34.156-4.119 c1.153,0.909,1.598,1.599,1.629,1.913c0.224,2.223-4.478,7.784-7.287,11.108c-5.529,6.539-11.245,13.301-10.515,21.482 c0.389,4.343,2.542,8.162,6.402,11.352c17.651,14.588,31.006,2.173,43.92-9.835c3.986-3.706,8.107-7.537,12.89-11.366 c3.829-3.066,7.162-4.443,8.693-3.583c3.722,2.08,7.752,14.816,5.056,36.622c-0.514,4.16,2.441,7.95,6.601,8.464 c0.317,0.039,0.63,0.059,0.941,0.059c3.776-0.001,7.048-2.816,7.524-6.66C229.41,194.762,224.654,175.421,213.459,169.167z"/> </g> </g> <g> <g> <path d="M242.632,175.929c-22.304,0.922-29.949,23.132-30.264,24.078c-1.324,3.977,0.828,8.275,4.805,9.599 c0.796,0.265,1.604,0.391,2.398,0.391c3.179,0,6.142-2.013,7.199-5.196c0.044-0.133,4.533-13.211,16.488-13.705 c4.189-0.173,7.443-3.708,7.27-7.897C250.355,179.01,246.824,175.74,242.632,175.929z"/> </g> </g> <g> <g> <path d="M462.055,173.63c-1.091-2.567-3.521-4.344-6.298-4.603c-4.56-0.419-6.864,3.019-7.619,4.15 c-8.9,13.359-25.979,22.531-48.092,25.824c-45.571,6.786-64.071,32.616-64.836,33.712c-0.05,0.07-0.097,0.141-0.144,0.213 c-6.965,10.731-29.707,37.683-51.027,33.61c-4.118-0.785-8.093,1.913-8.879,6.03c-0.787,4.117,1.913,8.093,6.029,8.88 c2.496,0.477,4.956,0.698,7.386,0.698c31.542-0.005,56.932-37.472,59.114-40.785c1.226-1.666,16.688-21.698,54.593-27.344 c26.371-3.927,47.12-15.413,58.439-32.347C462.624,179.543,463.245,176.429,462.055,173.63z"/> </g> </g> <g> <g> <path d="M395.086,202.192c-3.475-2.343-8.194-1.422-10.535,2.053c-2.343,3.476-1.424,8.194,2.053,10.536 c0.428,0.288,10.427,7.223,5.57,21.144c-1.382,3.958,0.707,8.285,4.665,9.667c0.829,0.288,1.672,0.425,2.501,0.425 c3.137,0,6.074-1.962,7.166-5.091C413.443,221.047,402.069,206.897,395.086,202.192z"/> </g> </g> <g> <g> <path d="M468.956,218.32c-0.914-4.091-4.966-6.666-9.062-5.753c-3.006,0.672-73.924,16.751-99.788,43.875 c-2.892,3.034-2.779,7.839,0.255,10.731c1.469,1.401,3.355,2.097,5.237,2.097c2.003,0,4.003-0.788,5.493-2.352 c22.69-23.795,91.42-39.38,92.112-39.535C467.294,226.468,469.868,222.41,468.956,218.32z"/> </g> </g> <g> <g> <path d="M162.236,326.13c-2.693-3.212-7.48-3.634-10.693-0.94c-12.451,10.438-21.289,10.928-21.376,10.931l0.156-0.002v15.18 c1.403,0,14.188-0.406,30.972-14.476C164.508,334.13,164.929,329.342,162.236,326.13z"/> </g> </g> <g> <g> <path d="M199.588,287.437c-3.905-1.523-8.307,0.41-9.829,4.315c-4.717,12.099-17.675,19.209-17.869,19.314 c-3.689,1.967-5.092,6.55-3.135,10.248c1.362,2.573,3.993,4.04,6.715,4.04c1.197,0,2.414-0.284,3.545-0.883 c0.735-0.389,18.076-9.728,24.888-27.205C205.425,293.36,203.493,288.959,199.588,287.437z"/> </g> </g> <g> <g> <path d="M89.098,480.628c-2.807-19.651-40.619-30.591-41-30.699c-28.955-8.212-41.375,10.096-46.695,26.897 c-3.4,10.738-0.553,20.612,7.816,27.087c6.896,5.337,17.27,7.951,28.509,7.951c13.31,0,27.834-3.666,39.233-10.814 C88.381,493.888,89.864,485.991,89.098,480.628z M68.896,488.188c-16.888,10.592-41.374,10.694-50.387,3.719 c-2.228-1.724-4.542-4.477-2.635-10.5c4.545-14.351,11.429-18.377,18.954-18.377c2.977,0,6.057,0.632,9.129,1.501 c12.637,3.583,29.349,12.89,30.113,18.241C74.212,483.765,72.666,485.824,68.896,488.188z"/> </g> </g> <g> <g> <path d="M52.647,453.519c-2.049-3.656-6.674-4.961-10.332-2.911c-0.381,0.214-9.413,5.339-16.132,14.694 c-9.31,12.961-9.961,28.138-1.835,42.735c1.388,2.495,3.974,3.9,6.639,3.9c1.25,0,2.517-0.309,3.684-0.961 c3.662-2.039,4.979-6.661,2.94-10.323c-12.259-22.02,9.595-35.356,12.148-36.816C53.399,461.782,54.692,457.168,52.647,453.519z"/> </g> </g> <g> <g> <path d="M507.292,14.214c-3.4-4.959-10.153-10.999-23.017-11.612c-3.548-0.168-7.084-0.727-10.506-1.267 c-7.999-1.263-16.27-2.567-24.206,1.297c-8.418,4.099-14.457,13.133-19.004,28.429c-7.861,26.441-8.408,42.109-1.83,52.388 c4.2,6.564,11.259,10.603,20.981,12.005c1.051,0.153,2.102,0.225,3.151,0.225c13.349,0,26.455-11.742,35.372-22.031 c10.13-11.687,19.281-26.584,22.767-37.07C512.83,31.081,512.45,21.737,507.292,14.214z M496.595,31.791 c-5.91,17.772-30.498,48.72-43.626,48.719c-0.373,0-0.738-0.025-1.092-0.077c-6.971-1.007-9.253-3.429-10.363-5.163 c-3.796-5.932-2.621-18.977,3.595-39.88c3.161-10.631,6.895-17.06,11.099-19.107c1.559-0.759,3.385-1.046,5.469-1.046 c2.786,0,6.034,0.512,9.722,1.096c3.646,0.575,7.777,1.228,12.152,1.436c5.328,0.253,9.102,1.947,11.219,5.033 C497.08,26.169,497.012,30.537,496.595,31.791z"/> </g> </g> <g> <g> <path d="M501.723,41.43c-21.461-29.456-61.059-21.274-62.736-20.91c-4.097,0.886-6.698,4.927-5.811,9.024 c0.888,4.098,4.927,6.697,9.025,5.812c0.311-0.068,31.546-6.545,47.254,15.013c1.485,2.039,3.797,3.121,6.14,3.121 c1.55,0,3.115-0.473,4.463-1.455C503.447,49.566,504.192,44.819,501.723,41.43z"/> </g> </g> <g> <g> <path d="M389.197,50.444c-12.389-2.032-24.127,6.387-26.162,18.777c-2.035,12.39,6.388,24.125,18.776,26.161 c1.245,0.204,2.483,0.304,3.706,0.304c10.944,0,20.625-7.936,22.456-19.079v-0.001C410.008,64.216,401.585,52.48,389.197,50.444z M392.996,74.144c-0.68,4.13-4.588,6.936-8.721,6.258c-4.13-0.678-6.937-4.59-6.259-8.719c0.61-3.716,3.838-6.36,7.486-6.36 c0.407,0,0.82,0.033,1.236,0.101C390.866,66.102,393.674,70.014,392.996,74.144z"/> </g> </g> <g> <g> <path d="M160.111,448.197c-12.388-2.037-24.124,6.388-26.161,18.777c-0.986,6.002,0.424,12.029,3.97,16.969 c3.547,4.942,8.805,8.205,14.807,9.192c1.25,0.205,2.5,0.307,3.741,0.307c4.722,0,9.315-1.468,13.228-4.277 c4.942-3.547,8.205-8.805,9.192-14.807C180.923,461.969,172.5,450.234,160.111,448.197z M163.909,471.899 c-0.678,4.129-4.582,6.94-8.72,6.258c-4.129-0.679-6.937-4.59-6.258-8.72c0.61-3.715,3.836-6.36,7.485-6.36 c0.407,0,0.82,0.032,1.235,0.102C161.78,463.858,164.588,467.769,163.909,471.899z"/> </g> </g> </g>
</svg>